<svg width="32" height="32" viewBox="0 0 32 32" xmlns="http://www.w3.org/2000/svg">
  <!-- Fondo con gradiente moderno -->
  <rect width="32" height="32" rx="8" fill="url(#modernBg)"/>
  
  <!-- Símbolo de datos - Barras de gráfico estilizadas -->
  <rect x="6" y="18" width="3" height="8" rx="1.5" fill="#60a5fa" opacity="0.9"/>
  <rect x="11" y="14" width="3" height="12" rx="1.5" fill="#34d399" opacity="0.9"/>
  <rect x="16" y="10" width="3" height="16" rx="1.5" fill="#60a5fa" opacity="0.9"/>
  <rect x="21" y="16" width="3" height="10" rx="1.5" fill="#34d399" opacity="0.9"/>
  
  <!-- Conexiones inteligentes - Red neuronal simplificada -->
  <circle cx="7.5" cy="16" r="1.5" fill="#fbbf24" opacity="0.8"/>
  <circle cx="24.5" cy="12" r="1.5" fill="#fbbf24" opacity="0.8"/>
  <circle cx="16" cy="8" r="2" fill="#f59e0b" opacity="0.9"/>
  
  <!-- Líneas de conexión curvadas -->
  <path d="M7.5 16 Q16 12 24.5 12" stroke="#fbbf24" stroke-width="1.5" fill="none" opacity="0.6"/>
  <path d="M7.5 16 Q11 10 16 8" stroke="#fbbf24" stroke-width="1.5" fill="none" opacity="0.6"/>
  <path d="M16 8 Q20 10 24.5 12" stroke="#fbbf24" stroke-width="1.5" fill="none" opacity="0.6"/>
  
  <!-- Punto central - Brain/AI -->
  <circle cx="16" cy="16" r="2.5" fill="url(#brainGradient)" opacity="0.95"/>
  <circle cx="16" cy="16" r="1" fill="#ffffff" opacity="0.9"/>
  
  <!-- Efecto de brillo sutil -->
  <circle cx="16" cy="16" r="4" fill="none" stroke="url(#glowGradient)" stroke-width="0.5" opacity="0.3"/>
  
  <defs>
    <!-- Gradiente de fondo -->
    <linearGradient id="modernBg" x1="0%" y1="0%" x2="100%" y2="100%">
      <stop offset="0%" style="stop-color:#1e40af"/>
      <stop offset="50%" style="stop-color:#3730a3"/>
      <stop offset="100%" style="stop-color:#1e293b"/>
    </linearGradient>
    
    <!-- Gradiente del centro (brain) -->
    <radialGradient id="brainGradient" cx="50%" cy="50%" r="50%">
      <stop offset="0%" style="stop-color:#f59e0b"/>
      <stop offset="100%" style="stop-color:#d97706"/>
    </radialGradient>
    
    <!-- Gradiente de brillo -->
    <radialGradient id="glowGradient" cx="50%" cy="50%" r="50%">
      <stop offset="0%" style="stop-color:#fbbf24;stop-opacity:0.8"/>
      <stop offset="100%" style="stop-color:#fbbf24;stop-opacity:0"/>
    </radialGradient>
  </defs>
</svg> 