<svg width="64" height="64" viewBox="0 0 64 64" xmlns="http://www.w3.org/2000/svg">
  <!-- Fondo con gradiente moderno -->
  <rect width="64" height="64" rx="16" fill="url(#largeBg)"/>
  
  <!-- Símbolo de datos - Barras de gráfico estilizadas más detalladas -->
  <rect x="12" y="36" width="6" height="16" rx="3" fill="#60a5fa" opacity="0.9"/>
  <rect x="22" y="28" width="6" height="24" rx="3" fill="#34d399" opacity="0.9"/>
  <rect x="32" y="20" width="6" height="32" rx="3" fill="#60a5fa" opacity="0.9"/>
  <rect x="42" y="32" width="6" height="20" rx="3" fill="#34d399" opacity="0.9"/>
  
  <!-- Elementos adicionales de análisis -->
  <rect x="8" y="44" width="4" height="8" rx="2" fill="#a78bfa" opacity="0.7"/>
  <rect x="52" y="40" width="4" height="12" rx="2" fill="#a78bfa" opacity="0.7"/>
  
  <!-- Conexiones inteligentes - Red neuronal más compleja -->
  <circle cx="15" cy="32" r="3" fill="#fbbf24" opacity="0.8"/>
  <circle cx="49" cy="24" r="3" fill="#fbbf24" opacity="0.8"/>
  <circle cx="32" cy="16" r="4" fill="#f59e0b" opacity="0.9"/>
  <circle cx="20" cy="48" r="2.5" fill="#fbbf24" opacity="0.7"/>
  <circle cx="44" cy="48" r="2.5" fill="#fbbf24" opacity="0.7"/>
  
  <!-- Líneas de conexión curvadas más complejas -->
  <path d="M15 32 Q32 24 49 24" stroke="#fbbf24" stroke-width="2" fill="none" opacity="0.6"/>
  <path d="M15 32 Q22 20 32 16" stroke="#fbbf24" stroke-width="2" fill="none" opacity="0.6"/>
  <path d="M32 16 Q40 20 49 24" stroke="#fbbf24" stroke-width="2" fill="none" opacity="0.6"/>
  <path d="M15 32 Q17.5 40 20 48" stroke="#fbbf24" stroke-width="1.5" fill="none" opacity="0.5"/>
  <path d="M49 24 Q46.5 36 44 48" stroke="#fbbf24" stroke-width="1.5" fill="none" opacity="0.5"/>
  <path d="M20 48 Q32 44 44 48" stroke="#fbbf24" stroke-width="1.5" fill="none" opacity="0.4"/>
  
  <!-- Punto central - Brain/AI más grande -->
  <circle cx="32" cy="32" r="5" fill="url(#largeBrainGradient)" opacity="0.95"/>
  <circle cx="32" cy="32" r="2" fill="#ffffff" opacity="0.9"/>
  
  <!-- Efecto de brillo y partículas -->
  <circle cx="32" cy="32" r="8" fill="none" stroke="url(#largeGlowGradient)" stroke-width="1" opacity="0.3"/>
  <circle cx="32" cy="32" r="12" fill="none" stroke="url(#largeGlowGradient)" stroke-width="0.5" opacity="0.15"/>
  
  <!-- Partículas flotantes para mayor dinamismo -->
  <circle cx="18" cy="18" r="1" fill="#60a5fa" opacity="0.6"/>
  <circle cx="46" cy="18" r="1.5" fill="#34d399" opacity="0.6"/>
  <circle cx="18" cy="46" r="1" fill="#a78bfa" opacity="0.6"/>
  <circle cx="46" cy="46" r="1" fill="#fbbf24" opacity="0.6"/>
  
  <defs>
    <!-- Gradiente de fondo más rico -->
    <linearGradient id="largeBg" x1="0%" y1="0%" x2="100%" y2="100%">
      <stop offset="0%" style="stop-color:#1e40af"/>
      <stop offset="30%" style="stop-color:#3730a3"/>
      <stop offset="70%" style="stop-color:#4c1d95"/>
      <stop offset="100%" style="stop-color:#1e293b"/>
    </linearGradient>
    
    <!-- Gradiente del centro (brain) más detallado -->
    <radialGradient id="largeBrainGradient" cx="50%" cy="50%" r="50%">
      <stop offset="0%" style="stop-color:#fbbf24"/>
      <stop offset="50%" style="stop-color:#f59e0b"/>
      <stop offset="100%" style="stop-color:#d97706"/>
    </radialGradient>
    
    <!-- Gradiente de brillo más complejo -->
    <radialGradient id="largeGlowGradient" cx="50%" cy="50%" r="50%">
      <stop offset="0%" style="stop-color:#fbbf24;stop-opacity:0.8"/>
      <stop offset="50%" style="stop-color:#f59e0b;stop-opacity:0.4"/>
      <stop offset="100%" style="stop-color:#fbbf24;stop-opacity:0"/>
    </radialGradient>
  </defs>
</svg> 